<svg width="891" height="447" viewBox="0 0 891 447" xmlns="http://www.w3.org/2000/svg"><title>Logo</title><g fill="#000" fill-rule="evenodd"><path d="M131.568 109.635c29.688 0 53.842-24.153 53.842-53.843 0-29.688-24.153-53.842-53.842-53.842-29.683 0-53.83 24.153-53.83 53.842 0 29.69 24.148 53.843 53.83 53.843z"/><path d="M300.743 42.14c-.333 0-.672.032-1.008.095L207.458 59.39c-2.905.54-5.96 3.144-6.955 5.93l-7.846 21.995c-.514 1.438-.416 2.954.274 4.267.69 1.313 1.885 2.25 3.36 2.644l3.274.87c5.49 12.232 10.51 25.835 13.475 36.496-9.31-2.5-20.553-6.395-30.306-10.53-2.15-.913-6.048-1.86-8.485-1.86H92.515C72.558 101.33 53.564 83.43 46.672 75.333c1.883-8.13 10.844-25.737 20.196-39.526 3.442-5.06 4.708-11.16 3.563-17.173-1.145-6.013-4.563-11.22-9.624-14.66C56.99 1.372 52.54 0 47.94 0c-7.606 0-14.696 3.75-18.966 10.03-.348.51-8.602 12.665-16.01 27.212C-.064 62.83-2.766 80.398 4.208 94.21c2.103 4.164 6.015 11.914 44.587 47.212 10.67 9.765 20.953 18.867 27.615 24.71v256.49c0 13.317 10.836 24.153 24.155 24.153 13.317 0 24.153-10.836 24.153-24.153V284.22h13.82v138.402c0 13.317 10.835 24.153 24.153 24.153 13.32 0 24.155-10.836 24.155-24.153l-.11-251.145c3.123 1.048 6.415 2.096 9.767 3.075 10.443 3.055 19.058 4.778 26.338 5.267 1.35.09 2.68.136 3.952.136 19.484 0 27.602-10.316 30.708-16.466 6.064-12.01 5.13-28.3-3.227-53.867l45.47 12.075c.46.123.923.184 1.374.184 2.548 0 4.397-1.944 4.397-4.624v-70.22c0-2.792-2.05-4.898-4.77-4.898zM326.814 57.86c.764 0 1.543-.134 2.3-.415l26.89-9.998c3.42-1.27 5.16-5.074 3.89-8.493-1.273-3.42-5.08-5.16-8.495-3.89l-26.89 9.996c-3.42 1.272-5.16 5.075-3.89 8.494.99 2.662 3.512 4.307 6.194 4.307zM326.812 87.05H353.7c3.647 0 6.605-2.958 6.605-6.606 0-3.648-2.958-6.605-6.606-6.605H326.81c-3.647 0-6.605 2.956-6.605 6.604s2.957 6.605 6.605 6.605zM356.002 113.44l-26.887-9.997c-3.42-1.27-7.224.47-8.494 3.89-1.27 3.42.47 7.222 3.89 8.494l26.888 9.997c.76.28 1.537.416 2.3.416 2.683 0 5.205-1.646 6.194-4.307 1.27-3.418-.47-7.22-3.89-8.493z"/><path d="M314.248 192.96c-.416.693-1.005 1.04-1.768 1.04-.763 0-1.82-.676-3.172-2.028-1.352-1.352-3.24-2.86-5.668-4.524-2.427-1.664-5.547-3.172-9.36-4.524-3.813-1.352-8.528-2.028-14.144-2.028-5.685 0-10.73.85-15.132 2.548-4.403 1.7-8.095 4.004-11.076 6.916-2.98 2.912-5.235 6.257-6.76 10.036-1.525 3.78-2.288 7.748-2.288 11.908 0 5.34 1.075 9.793 3.224 13.364 2.15 3.57 4.992 6.57 8.528 8.996 3.536 2.427 7.54 4.472 12.012 6.136 4.472 1.664 9.065 3.276 13.78 4.836 4.715 1.56 9.308 3.224 13.78 4.992 4.472 1.768 8.476 4.004 12.012 6.708 3.536 2.704 6.38 6.05 8.528 10.036 2.15 3.987 3.224 8.927 3.224 14.82 0 6.032-1.023 11.7-3.068 17.004-2.045 5.304-5.027 9.915-8.944 13.832-3.917 3.917-8.7 7.003-14.352 9.256-5.65 2.253-12.08 3.38-19.292 3.38-4.923 0-9.377-.433-13.364-1.3s-7.66-2.115-11.024-3.744c-3.363-1.63-6.448-3.623-9.256-5.98s-5.495-5.027-8.06-8.008l1.352-2.08c.347-.347.64-.607.884-.78.243-.173.607-.26 1.092-.26.485 0 1.16.433 2.028 1.3.867.867 1.993 1.94 3.38 3.224 1.387 1.283 3.05 2.67 4.992 4.16 1.94 1.49 4.247 2.877 6.916 4.16 2.67 1.283 5.755 2.357 9.256 3.224 3.5.867 7.47 1.3 11.908 1.3 6.31 0 11.96-.988 16.952-2.964 4.992-1.976 9.204-4.68 12.636-8.112 3.432-3.432 6.05-7.436 7.852-12.012 1.803-4.576 2.704-9.464 2.704-14.664 0-5.547-1.075-10.123-3.224-13.728-2.15-3.605-4.975-6.62-8.476-9.048-3.5-2.427-7.505-4.455-12.012-6.084-4.507-1.63-9.1-3.19-13.78-4.68-4.68-1.49-9.273-3.12-13.78-4.888-4.507-1.768-8.51-4.02-12.012-6.76-3.5-2.74-6.327-6.136-8.476-10.192-2.15-4.056-3.224-9.135-3.224-15.236 0-4.784.9-9.36 2.704-13.728 1.803-4.368 4.42-8.233 7.852-11.596 3.432-3.363 7.66-6.05 12.688-8.06 5.027-2.01 10.8-3.016 17.316-3.016 7.35 0 13.85 1.18 19.5 3.536 5.65 2.357 10.937 6.032 15.86 11.024l-1.248 2.288zM435.2 271.584l-33.488-81.432c-.763-1.872-1.49-3.952-2.184-6.24-.624 2.288-1.352 4.368-2.184 6.24l-33.488 81.432H435.2zM462.864 324h-4.472c-1.04 0-1.803-.59-2.288-1.768l-19.032-46.28h-75.088l-19.032 46.28c-.347 1.18-1.144 1.768-2.392 1.768h-4.264l60.528-146.224h5.512L462.864 324zm105.144-4.992V324H489.8V177.776h5.72v141.232h72.488zM701.44 177.776L640.704 324h-5.096l-60.736-146.224h4.472c1.18 0 1.94.59 2.288 1.768L635.92 310.48c.416 1.11.815 2.236 1.196 3.38.38 1.144.745 2.305 1.092 3.484.624-2.357 1.352-4.645 2.184-6.864l54.184-130.936c.347-1.18 1.18-1.768 2.496-1.768h4.368zM734.096 324h-5.72V177.776h5.72V324zm156.208-146.224V324h-2.392c-.9 0-1.664-.416-2.288-1.248l-100.36-135.616c.07.624.12 1.265.156 1.924.035.66.052 1.265.052 1.82V324h-4.992V177.776h2.6c.555 0 1.005.087 1.352.26.347.173.728.537 1.144 1.092l99.944 135.096c-.07-.624-.12-1.248-.156-1.872-.035-.624-.052-1.213-.052-1.768V177.776h4.992zM272.024 424h-35.36V272.472h35.36V424zm82.784-77.168c9.152 0 15.74-2.184 19.76-6.552 4.02-4.368 6.032-10.47 6.032-18.304 0-3.467-.52-6.62-1.56-9.464-1.04-2.843-2.617-5.287-4.732-7.332s-4.784-3.623-8.008-4.732c-3.224-1.11-7.055-1.664-11.492-1.664h-18.304v48.048h18.304zm0-74.36c10.677 0 19.847 1.265 27.508 3.796 7.66 2.53 13.97 6.015 18.928 10.452 4.957 4.437 8.615 9.672 10.972 15.704 2.357 6.032 3.536 12.55 3.536 19.552 0 7.557-1.213 14.49-3.64 20.8-2.427 6.31-6.136 11.717-11.128 16.224s-11.32 8.025-18.98 10.556c-7.66 2.53-16.727 3.796-27.196 3.796h-18.304V424h-35.152V272.472h53.456zm162.552 30.784c-1.04 1.664-2.132 2.912-3.276 3.744-1.144.832-2.617 1.248-4.42 1.248-1.595 0-3.31-.503-5.148-1.508-1.837-1.005-3.917-2.132-6.24-3.38-2.323-1.248-4.975-2.375-7.956-3.38-2.98-1.005-6.38-1.508-10.192-1.508-6.587 0-11.492 1.404-14.716 4.212-3.224 2.808-4.836 6.604-4.836 11.388 0 3.05.97 5.58 2.912 7.592 1.94 2.01 4.49 3.744 7.644 5.2 3.155 1.456 6.76 2.79 10.816 4.004 4.056 1.213 8.2 2.565 12.428 4.056 4.23 1.49 8.372 3.24 12.428 5.252 4.056 2.01 7.66 4.576 10.816 7.696 3.155 3.12 5.703 6.916 7.644 11.388 1.94 4.472 2.912 9.863 2.912 16.172 0 7.003-1.213 13.555-3.64 19.656-2.427 6.1-5.945 11.423-10.556 15.964-4.61 4.54-10.296 8.112-17.056 10.712-6.76 2.6-14.44 3.9-23.036 3.9-4.715 0-9.516-.485-14.404-1.456-4.888-.97-9.62-2.34-14.196-4.108-4.576-1.768-8.875-3.865-12.896-6.292-4.02-2.427-7.523-5.13-10.504-8.112l10.4-16.432c.832-1.18 1.924-2.167 3.276-2.964 1.352-.797 2.825-1.196 4.42-1.196 2.08 0 4.177.66 6.292 1.976 2.115 1.317 4.507 2.773 7.176 4.368 2.67 1.595 5.737 3.05 9.204 4.368 3.467 1.317 7.557 1.976 12.272 1.976 6.38 0 11.336-1.404 14.872-4.212 3.536-2.808 5.304-7.263 5.304-13.364 0-3.536-.97-6.413-2.912-8.632-1.94-2.22-4.49-4.056-7.644-5.512-3.155-1.456-6.743-2.74-10.764-3.848-4.02-1.11-8.147-2.34-12.376-3.692-4.23-1.352-8.355-3.016-12.376-4.992-4.02-1.976-7.61-4.576-10.764-7.8-3.155-3.224-5.703-7.245-7.644-12.064-1.94-4.82-2.912-10.764-2.912-17.836 0-5.685 1.144-11.232 3.432-16.64 2.288-5.408 5.65-10.227 10.088-14.456 4.437-4.23 9.88-7.61 16.328-10.14 6.448-2.53 13.832-3.796 22.152-3.796 4.645 0 9.17.364 13.572 1.092 4.403.728 8.58 1.803 12.532 3.224 3.952 1.42 7.644 3.12 11.076 5.096 3.432 1.976 6.5 4.212 9.204 6.708l-8.736 16.328zm94.744 92.976c4.715 0 8.927-.78 12.636-2.34 3.71-1.56 6.847-3.796 9.412-6.708 2.565-2.912 4.524-6.465 5.876-10.66 1.352-4.195 2.028-8.96 2.028-14.3v-89.752h35.152v89.752c0 9.29-1.508 17.82-4.524 25.584-3.016 7.765-7.332 14.456-12.948 20.072-5.616 5.616-12.445 9.984-20.488 13.104-8.043 3.12-17.09 4.68-27.144 4.68-10.123 0-19.205-1.56-27.248-4.68-8.043-3.12-14.872-7.488-20.488-13.104-5.616-5.616-9.915-12.307-12.896-20.072-2.98-7.765-4.472-16.293-4.472-25.584v-89.752h35.152v89.648c0 5.34.676 10.105 2.028 14.3 1.352 4.195 3.31 7.765 5.876 10.712 2.565 2.947 5.703 5.2 9.412 6.76 3.71 1.56 7.92 2.34 12.636 2.34zm262.912-123.76V424h-30.992v-87.152c0-2.01.052-4.195.156-6.552.104-2.357.295-4.75.572-7.176l-40.248 77.896c-1.248 2.427-2.93 4.264-5.044 5.512-2.115 1.248-4.524 1.872-7.228 1.872h-4.784c-2.704 0-5.113-.624-7.228-1.872-2.115-1.248-3.796-3.085-5.044-5.512l-40.248-78.104c.208 2.496.38 4.94.52 7.332.14 2.392.208 4.593.208 6.604V424h-30.992V272.472h26.832c1.525 0 2.86.035 4.004.104 1.144.07 2.167.277 3.068.624.9.347 1.716.884 2.444 1.612.728.728 1.44 1.75 2.132 3.068l39 76.856c1.387 2.635 2.72 5.373 4.004 8.216 1.283 2.843 2.513 5.755 3.692 8.736 1.18-3.05 2.41-6.032 3.692-8.944 1.283-2.912 2.652-5.685 4.108-8.32l38.896-76.544c.693-1.317 1.404-2.34 2.132-3.068.728-.728 1.543-1.265 2.444-1.612.9-.347 1.924-.555 3.068-.624 1.144-.07 2.48-.104 4.004-.104h26.832z"/></g></svg>