<svg xmlns="http://www.w3.org/2000/svg" viewBox="0 0 53 53"><path d="M18.613 41.552l-7.907 4.313c-.464.253-.88.564-1.27.903C14.047 50.655 20 53 26.5 53c6.454 0 12.367-2.31 16.964-6.144-.424-.358-.884-.68-1.394-.934l-8.467-4.233c-1.094-.548-1.785-1.666-1.785-2.89v-3.32c.238-.272.51-.62.8-1.03 1.155-1.63 2.028-3.424 2.633-5.305 1.087-.335 1.887-1.338 1.887-2.53V23.07c0-.78-.347-1.478-.886-1.966v-5.126S37.305 8 26.5 8s-9.75 7.978-9.75 7.978v5.126c-.54.488-.885 1.185-.885 1.965v3.545c0 .934.49 1.756 1.226 2.23.887 3.858 3.207 6.634 3.207 6.634v3.24c0 1.18-.647 2.266-1.684 2.832z" fill="#E7ECED"/><path d="M26.953.004C12.32-.246.253 11.414.003 26.047-.136 34.344 3.56 41.8 9.45 46.76c.385-.336.798-.644 1.257-.894l7.907-4.313c1.037-.566 1.683-1.653 1.683-2.835v-3.24s-2.32-2.776-3.206-6.633c-.735-.475-1.227-1.296-1.227-2.23v-3.547c0-.78.347-1.477.886-1.965v-5.126S15.695 8 26.5 8s9.75 7.977 9.75 7.977v5.126c.54.488.885 1.185.885 1.965v3.546c0 1.192-.8 2.195-1.886 2.53-.606 1.88-1.48 3.674-2.633 5.304-.29.41-.563.76-.8 1.03V38.8c0 1.223.69 2.342 1.784 2.888l8.468 4.233c.508.255.967.576 1.39.933 5.71-4.762 9.4-11.882 9.536-19.9.252-14.633-11.407-26.7-26.04-26.95z" fill="#556080"/></svg>